<?xml version="1.0" encoding="UTF-8" standalone="no"?>
<svg
   width="1263"
   height="200"
   xml:space="preserve"
   overflow="hidden"
   version="1.1"
   id="svg2"
   sodipodi:docname="logo20230930.svg"
   inkscape:version="1.3 (0e150ed6c4, 2023-07-21)"
   xmlns:inkscape="http://www.inkscape.org/namespaces/inkscape"
   xmlns:sodipodi="http://sodipodi.sourceforge.net/DTD/sodipodi-0.dtd"
   xmlns="http://www.w3.org/2000/svg"
   xmlns:svg="http://www.w3.org/2000/svg"><sodipodi:namedview
     id="namedview2"
     pagecolor="#ffffff"
     bordercolor="#000000"
     borderopacity="0.25"
     inkscape:showpageshadow="2"
     inkscape:pageopacity="0.0"
     inkscape:pagecheckerboard="0"
     inkscape:deskcolor="#d1d1d1"
     inkscape:zoom="1.050338"
     inkscape:cx="631.22538"
     inkscape:cy="99.967821"
     inkscape:window-width="1853"
     inkscape:window-height="1024"
     inkscape:window-x="312"
     inkscape:window-y="137"
     inkscape:window-maximized="0"
     inkscape:current-layer="svg2" /><defs
     id="defs1"><clipPath
       id="clip0"><rect
         x="1537"
         y="1562"
         width="1376"
         height="386"
         id="rect1" /></clipPath></defs><g
     clip-path="url(#clip0)"
     transform="translate(-1537 -1651)"
     id="g2"><path
       d="m 154.40625,-10.007813 q -17.87109,-56.472656 -46.46484,-90.070317 l 15.01172,-11.4375 q 35.74218,45.035161 50.7539,95.074224 z M 68.625,-95.074219 Q 74.34375,-91.5 67.195312,-88.640625 54.328125,-43.605469 25.734375,-6.4335937 L 9.2929688,-17.15625 Q 40.746094,-55.042969 51.46875,-102.9375 Z m 191.57812,-2.859375 68.625,-17.156246 7.86329,-3.57422 12.86718,12.86718 q 3.57422,4.28907 -2.85937,6.433599 -12.15235,22.875 -32.88281,49.324219 l -13.58204,-10.007813 q 15.01172,-17.871094 25.73438,-39.316406 l -60.76172,15.726562 30.02344,88.6406252 -17.15625,5.0039068 -29.3086,-89.355469 -50.7539,13.582031 -5.71875,-15.726562 51.46875,-12.152344 -15.01172,-42.890629 17.15625,-3.57421 q 6.43359,0 2.14453,5.71875 z m 111.51563,-8.578126 v -15.72656 h 107.94141 l 10.72265,-2.14453 7.86328,7.14843 Q 495.38672,-22.875 398.16797,4.2890625 L 385.30078,-11.4375 q 89.35547,-20.015625 93.64453,-95.07422 z m 112.23047,-17.87109 q -9.29297,-10.00781 -18.58594,-17.8711 l 8.57813,-8.57812 q 10.00781,7.86328 19.30078,18.58594 z m 25.73437,-2.14453 q -11.4375,-12.86719 -21.44531,-21.44532 l 8.57813,-7.14843 q 11.4375,8.57812 21.44531,20.73047 z m 143.6836,31.453121 h 42.17578 v 15.726563 h -41.46094 v 13.582031 q 0,53.613281 -56.47266,76.488281 l -11.4375,-12.8671873 q 51.46875,-17.1562497 51.46875,-62.1914057 v -15.011719 h -47.17968 l 0.71484,36.457031 h -15.72656 l -0.71485,-36.457031 h -40.03125 v -15.726563 h 40.03125 l -0.71484,-37.886721 h 15.01172 q 7.14844,0.71485 0.71484,7.14844 l 0.71485,30.738281 h 46.46484 v -43.605471 h 15.72656 q 7.14844,0.71485 0.71485,7.14844 z m 122.23828,69.339844 q 13.58203,10.722656 20.01562,26.44921875 L 782.03906,10.722656 Q 774.17578,-5.71875 763.45312,-15.726563 Z m 66.48047,-37.171875 q -13.58203,28.59375 -44.32032,52.898437 l -9.29296,-15.011718 Q 822.78516,-52.183594 841.37109,-91.5 h -45.03515 v -15.72656 h 45.75 v -39.31641 h 13.58203 q 5.71875,0.71485 0.71484,4.28906 v 35.02735 h 25.01953 V -91.5 H 856.38281 V 5.0039062 q 0,9.2929688 -10.00781,9.2929688 h -16.44141 l -2.85937,-15.7265625 h 12.15234 q 2.85938,0 2.85938,-2.859375 z m -115.08985,-78.63281 h 60.76172 v 112.230466 h -60.76172 z m 46.46485,33.59765 v -20.01562 h -32.16797 v 20.01562 z m 0,32.882816 v -19.300781 h -32.16797 v 19.300781 z m 0,32.167969 v -18.585937 h -32.16797 v 18.585937 z m -19.30078,27.164062 q 2.85937,3.574219 -2.14454,3.574219 Q 741.29297,5.71875 726.99609,17.15625 L 714.84375,5.0039062 q 15.72656,-12.8671874 25.73437,-30.0234372 z m 202.30078,-59.332031 q 10.00781,12.867188 19.30078,28.59375 l -12.86719,7.863282 q -7.86328,-14.296875 -18.58594,-28.59375 z m 52.18356,45.75 q 0,11.4375 -11.43747,11.4375 h -15.72656 l -2.85938,-13.582031 h 12.86719 q 2.85938,0 2.85938,-2.859375 V -83.636719 H 932.15625 V -97.21875 h 62.19141 v -21.44531 h 13.58204 q 5.7187,0.71484 0.7148,4.28906 v 17.15625 h 22.875 v 13.582031 h -22.875 z m 43.6055,41.460938 h -14.2969 V 5.0039062 H 924.29297 V 14.296875 H 909.99609 V -139.39453 H 1052.25 Z M 1037.9531,-8.578125 V -125.8125 H 924.29297 V -8.578125 Z"
       id="text1"
       style="font-size:183px;font-family:sans-serif"
       transform="matrix(1 0 0 1 1726.73 1807)"
       aria-label="ハヤブサ財団" /><path
       d="M1602.17 1717.84C1595.8 1724.07 1586.47 1731.62 1580.1 1734.38 1573.74 1737.13 1568.05 1732.99 1563.97 1734.38 1559.89 1735.77 1558.75 1736.33 1555.63 1742.74 1552.51 1749.15 1548.27 1758 1545.25 1772.83 1542.22 1787.67 1537.86 1819.84 1537.46 1831.73 1537.06 1843.62 1535.32 1853.8 1542.83 1844.17 1550.34 1834.54 1567.5 1789.86 1582.52 1773.95 1597.53 1758.03 1620.37 1761.32 1632.95 1748.68 1645.53 1736.05 1642.16 1713.11 1657.98 1698.15 1673.81 1683.2 1718.12 1666.41 1727.89 1658.95 1737.65 1651.49 1728.47 1653.01 1716.58 1653.38 1704.68 1653.75 1671.49 1658.21 1656.5 1661.18 1641.51 1664.15 1632.98 1668.09 1626.65 1671.21 1620.31 1674.34 1619.88 1675.64 1618.49 1679.95 1617.1 1684.25 1621.08 1690.69 1618.3 1697.04 1615.52 1703.38 1608.54 1711.62 1602.17 1717.84Z"
       fill="#2F5597"
       fill-rule="evenodd"
       id="path1" /><path
       d="M1577.03 1711.01C1577.3 1711.75 1579.48 1711.31 1580.43 1711.54 1581.39 1711.78 1581.92 1711.16 1582.76 1712.43 1583.59 1713.71 1584.07 1716.73 1585.44 1719.19 1586.81 1721.65 1586.75 1722.77 1590.98 1727.18 1595.22 1731.6 1603.71 1740.72 1610.83 1745.67 1617.96 1750.61 1633.72 1756.87 1633.72 1756.87 1641.5 1760.63 1650.77 1765.4 1657.51 1768.24 1664.24 1771.08 1670.27 1773.6 1674.14 1773.93 1678.02 1774.25 1682.04 1773.57 1680.76 1770.19 1679.48 1766.82 1673.28 1761.34 1666.45 1753.67 1659.63 1745.99 1647.2 1731.72 1639.8 1724.16 1632.41 1716.61 1628.45 1711.57 1622.1 1708.35 1615.75 1705.12 1601.71 1704.79 1601.71 1704.79 1596.59 1703.9 1594.11 1703.13 1591.34 1703.01 1588.57 1702.9 1586.72 1703.58 1585.08 1704.08 1583.44 1704.58 1582.55 1705.53 1581.51 1706.03 1580.46 1706.54 1579.51 1706.72 1578.82 1707.1 1578.14 1707.49 1576.77 1710.27 1577.03 1711.01Z"
       fill="#2F5597"
       fill-rule="evenodd"
       id="path2" /></g></svg>
