<svg width="1376" height="386" xmlns="http://www.w3.org/2000/svg" xmlns:xlink="http://www.w3.org/1999/xlink" xml:space="preserve" overflow="hidden"><defs><clipPath id="clip0"><rect x="1537" y="1562" width="1376" height="386"/></clipPath></defs><g clip-path="url(#clip0)" transform="translate(-1537 -1562)"><text font-family="MS PGothic,MS PGothic_MSFontService,sans-serif" font-weight="400" font-size="183" transform="matrix(1 0 0 1 1726.73 1807)">ハヤブサ財団</text><path d="M1602.17 1717.84C1595.8 1724.07 1586.47 1731.62 1580.1 1734.38 1573.74 1737.13 1568.05 1732.99 1563.97 1734.38 1559.89 1735.77 1558.75 1736.33 1555.63 1742.74 1552.51 1749.15 1548.27 1758 1545.25 1772.83 1542.22 1787.67 1537.86 1819.84 1537.46 1831.73 1537.06 1843.62 1535.32 1853.8 1542.83 1844.17 1550.34 1834.54 1567.5 1789.86 1582.52 1773.95 1597.53 1758.03 1620.37 1761.32 1632.95 1748.68 1645.53 1736.05 1642.16 1713.11 1657.98 1698.15 1673.81 1683.2 1718.12 1666.41 1727.89 1658.95 1737.65 1651.49 1728.47 1653.01 1716.58 1653.38 1704.68 1653.75 1671.49 1658.21 1656.5 1661.18 1641.51 1664.15 1632.98 1668.09 1626.65 1671.21 1620.31 1674.34 1619.88 1675.64 1618.49 1679.95 1617.1 1684.25 1621.08 1690.69 1618.3 1697.04 1615.52 1703.38 1608.54 1711.62 1602.17 1717.84Z" fill="#2F5597" fill-rule="evenodd"/><path d="M1577.03 1711.01C1577.3 1711.75 1579.48 1711.31 1580.43 1711.54 1581.39 1711.78 1581.92 1711.16 1582.76 1712.43 1583.59 1713.71 1584.07 1716.73 1585.44 1719.19 1586.81 1721.65 1586.75 1722.77 1590.98 1727.18 1595.22 1731.6 1603.71 1740.72 1610.83 1745.67 1617.96 1750.61 1633.72 1756.87 1633.72 1756.87 1641.5 1760.63 1650.77 1765.4 1657.51 1768.24 1664.24 1771.08 1670.27 1773.6 1674.14 1773.93 1678.02 1774.25 1682.04 1773.57 1680.76 1770.19 1679.48 1766.82 1673.28 1761.34 1666.45 1753.67 1659.63 1745.99 1647.2 1731.72 1639.8 1724.16 1632.41 1716.61 1628.45 1711.57 1622.1 1708.35 1615.75 1705.12 1601.71 1704.79 1601.71 1704.79 1596.59 1703.9 1594.11 1703.13 1591.34 1703.01 1588.57 1702.9 1586.72 1703.58 1585.08 1704.08 1583.44 1704.58 1582.55 1705.53 1581.51 1706.03 1580.46 1706.54 1579.51 1706.72 1578.82 1707.1 1578.14 1707.49 1576.77 1710.27 1577.03 1711.01Z" fill="#2F5597" fill-rule="evenodd"/></g></svg>